{
  "asset": {
    "generator": "Khronos glTF Blender I/O v1.7.33",
    "version": "2.0"
  },
  "scene": 0,
  "scenes": [
    {
      "name": "Scene",
      "nodes": [
        0
      ]
    }
  ],
  "nodes": [
    {
      "mesh": 0,
      "name": "sphere_gltf"
    }
  ],
  "materials": [
    {
      "doubleSided": true,
      "name": "synthetic_wood",
      "normalTexture": {
        "index": 0
      },
      "pbrMetallicRoughness": {
        "baseColorTexture": {
          "index": 1
        },
        "metallicFactor": 0,
        "metallicRoughnessTexture": {
          "index": 2
        }
      }
    }
  ],
  "meshes": [
    {
      "name": "Sphere.001",
      "primitives": [
        {
          "attributes": {
            "POSITION": 0,
            "NORMAL": 1,
            "TEXCOORD_0": 2
          },
          "indices": 3,
          "material": 0
        }
      ]
    }
  ],
  "textures": [
    {
      "sampler": 0,
      "source": 0
    },
    {
      "sampler": 0,
      "source": 1
    },
    {
      "sampler": 0,
      "source": 2
    }
  ],
  "images": [
    {
      "mimeType": "image/jpeg",
      "name": "synthetic_wood_nor_gl_8k",
      "uri": "textures/synthetic_wood_nor_gl_4k.jpg"
    },
    {
      "mimeType": "image/jpeg",
      "name": "synthetic_wood_diff_8k",
      "uri": "textures/synthetic_wood_diff_4k.jpg"
    },
    {
      "mimeType": "image/jpeg",
      "name": "synthetic_wood_rough_8k",
      "uri": "textures/synthetic_wood_rough_4k.jpg"
    }
  ],
  "accessors": [
    {
      "bufferView": 0,
      "componentType": 5126,
      "count": 53868,
      "max": [
        1.0267051458358765,
        1.0083229541778564,
        1.0149303674697876
      ],
      "min": [
        -1.0266975164413452,
        -1.0083245038986206,
        -1.0149534940719604
      ],
      "type": "VEC3"
    },
    {
      "bufferView": 1,
      "componentType": 5126,
      "count": 53868,
      "type": "VEC3"
    },
    {
      "bufferView": 2,
      "componentType": 5126,
      "count": 53868,
      "type": "VEC2"
    },
    {
      "bufferView": 3,
      "componentType": 5123,
      "count": 322170,
      "type": "SCALAR"
    }
  ],
  "bufferViews": [
    {
      "buffer": 0,
      "byteLength": 646416,
      "byteOffset": 0
    },
    {
      "buffer": 0,
      "byteLength": 646416,
      "byteOffset": 646416
    },
    {
      "buffer": 0,
      "byteLength": 430944,
      "byteOffset": 1292832
    },
    {
      "buffer": 0,
      "byteLength": 644340,
      "byteOffset": 1723776
    }
  ],
  "samplers": [
    {
      "magFilter": 9729,
      "minFilter": 9987
    }
  ],
  "buffers": [
    {
      "byteLength": 2368116,
      "uri": "synthetic_wood.bin"
    }
  ]
}